# xmcd
#
# Track frame offsets: 
#        150
#        18710
#        38302
#        71939
#        87072
#        102228
#        113047
#        133213
#        151218
#        167513
#        191208
#        209557
#
# Disc length: 3118 seconds
#
# Revision: 0
# Processed by: cddbd v1.5.2PL0 Copyright (c) Steve Scherf et al.
# Submitted via: ExactAudioCopy v0.99pb5
#
DISCID=a20c2c0c
DTITLE=the Sugar Prophets - the Sugar Prophets
DYEAR=2011
DGENRE=Blues
TTITLE0=Face Up
TTITLE1=Hurry, Hurry
TTITLE2=Livin' in Sin
TTITLE3=Bad Ass
TTITLE4=Big Love
TTITLE5=Lots of Trouble
TTITLE6=Brighter Day
TTITLE7=Bigger Than Life Size
TTITLE8=Hey Bernice
TTITLE9=Katie
TTITLE10=Heart's Desire (Part 1)
TTITLE11=Heart's Desire (Part 2)
EXTD=
EXTT0=
EXTT1=
EXTT2=
EXTT3=
EXTT4=
EXTT5=
EXTT6=
EXTT7=
EXTT8=
EXTT9=
EXTT10=
EXTT11=
PLAYORDER=
